<?xml version="1.0" encoding="UTF-8"?>
<!DOCTYPE svg PUBLIC "-//W3C//DTD SVG 1.1//EN" "http://www.w3.org/Graphics/SVG/1.1/DTD/svg11.dtd">
<svg xmlns="http://www.w3.org/2000/svg" version="1.1" width="512px" height="512px" style="shape-rendering:geometricPrecision; text-rendering:geometricPrecision; image-rendering:optimizeQuality; fill-rule:evenodd; clip-rule:evenodd" xmlns:xlink="http://www.w3.org/1999/xlink">
<g><path style="opacity:0.034" fill="#000100" d="M 233.5,-0.5 C 238.5,-0.5 243.5,-0.5 248.5,-0.5C 248.5,-0.166667 248.5,0.166667 248.5,0.5C 247.209,0.262695 246.209,0.596028 245.5,1.5C 244.508,1.32842 243.842,1.66175 243.5,2.5C 242.209,2.26269 241.209,2.59603 240.5,3.5C 239.508,3.32842 238.842,3.66175 238.5,4.5C 238.5,5.16667 238.167,5.5 237.5,5.5C 237.167,4.16667 236.833,4.16667 236.5,5.5C 236.5,6.16667 236.167,6.5 235.5,6.5C 234.833,5.16667 234.167,5.16667 233.5,6.5C 233.5,7.16667 233.167,7.5 232.5,7.5C 232.167,6.16667 231.833,6.16667 231.5,7.5C 231.5,8.16667 231.167,8.5 230.5,8.5C 229.833,7.16667 229.167,7.16667 228.5,8.5C 228.5,9.16667 228.167,9.5 227.5,9.5C 227.167,8.16667 226.833,8.16667 226.5,9.5C 226.5,10.1667 226.167,10.5 225.5,10.5C 224.833,9.16667 224.167,9.16667 223.5,10.5C 223.5,11.1667 223.167,11.5 222.5,11.5C 221.833,10.1667 221.167,10.1667 220.5,11.5C 219.508,11.3284 218.842,11.6618 218.5,12.5C 218.5,13.1667 218.167,13.5 217.5,13.5C 216.833,12.1667 216.167,12.1667 215.5,13.5C 214.508,13.3284 213.842,13.6618 213.5,14.5C 213.5,15.1667 213.167,15.5 212.5,15.5C 211.833,14.1667 211.167,14.1667 210.5,15.5C 209.508,15.3284 208.842,15.6618 208.5,16.5C 208.5,17.1667 208.167,17.5 207.5,17.5C 206.833,16.1667 206.167,16.1667 205.5,17.5C 204.209,17.2627 203.209,17.596 202.5,18.5C 201.508,18.3284 200.842,18.6618 200.5,19.5C 199.209,19.2627 198.209,19.596 197.5,20.5C 196.508,20.3284 195.842,20.6618 195.5,21.5C 195.5,22.1667 195.167,22.5 194.5,22.5C 193.833,21.1667 193.167,21.1667 192.5,22.5C 191.508,22.3284 190.842,22.6618 190.5,23.5C 190.5,24.1667 190.167,24.5 189.5,24.5C 188.833,23.1667 188.167,23.1667 187.5,24.5C 186.209,24.2627 185.209,24.596 184.5,25.5C 183.508,25.3284 182.842,25.6618 182.5,26.5C 181.209,26.2627 180.209,26.596 179.5,27.5C 177.776,27.4607 177.443,27.794 178.5,28.5C 178.5,29.1667 178.167,29.5 177.5,29.5C 176.5,30.5 175.5,31.5 174.5,32.5C 171.833,32.8333 171.833,33.1667 174.5,33.5C 173.22,34.9313 171.553,35.5979 169.5,35.5C 168.22,36.9313 166.553,37.5979 164.5,37.5C 163.22,38.9313 161.553,39.5979 159.5,39.5C 158.22,40.9313 156.553,41.5979 154.5,41.5C 153.22,42.9313 151.553,43.5979 149.5,43.5C 148.791,44.404 147.791,44.7373 146.5,44.5C 145.279,43.5354 143.946,43.702 142.5,45C 143.094,45.4643 143.761,45.631 144.5,45.5C 143.791,46.404 142.791,46.7373 141.5,46.5C 141.44,45.9569 141.107,45.6236 140.5,45.5C 136.833,47 133.167,48.5 129.5,50C 130.094,50.4643 130.761,50.631 131.5,50.5C 130.22,51.9313 128.553,52.5979 126.5,52.5C 125.22,53.9313 123.553,54.5979 121.5,54.5C 120.151,53.2035 118.818,53.3702 117.5,55C 117.728,55.3988 118.062,55.5654 118.5,55.5C 118.158,56.3382 117.492,56.6716 116.5,56.5C 115.5,55.1667 114.5,55.1667 113.5,56.5C 112.508,56.3284 111.842,56.6618 111.5,57.5C 111.5,57.8333 111.5,58.1667 111.5,58.5C 110.791,59.404 109.791,59.7373 108.5,59.5C 107.22,60.9313 105.553,61.5979 103.5,61.5C 102.279,60.5354 100.946,60.702 99.5,62C 100.094,62.4643 100.761,62.631 101.5,62.5C 100.791,63.404 99.791,63.7373 98.5,63.5C 98.44,62.9569 98.1067,62.6236 97.5,62.5C 94.651,63.0997 92.3177,64.4331 90.5,66.5C 89.8333,66.5 89.5,66.1667 89.5,65.5C 89.5,64.8333 89.1667,64.5 88.5,64.5C 88.1667,63.1667 87.8333,63.1667 87.5,64.5C 86.5084,64.3284 85.8417,64.6618 85.5,65.5C 84.209,65.2627 83.209,65.596 82.5,66.5C 81.5084,66.3284 80.8417,66.6618 80.5,67.5C 80.5,68.1667 80.1667,68.5 79.5,68.5C 78.8333,67.1667 78.1667,67.1667 77.5,68.5C 76.5084,68.3284 75.8417,68.6618 75.5,69.5C 75.5,70.1667 75.1667,70.5 74.5,70.5C 73.8333,69.1667 73.1667,69.1667 72.5,70.5C 71.5084,70.3284 70.8417,70.6618 70.5,71.5C 70.5,72.1667 70.1667,72.5 69.5,72.5C 69.1667,71.1667 68.8333,71.1667 68.5,72.5C 68.5,73.1667 68.1667,73.5 67.5,73.5C 66.8333,72.1667 66.1667,72.1667 65.5,73.5C 65.5,74.1667 65.1667,74.5 64.5,74.5C 63.8333,73.1667 63.1667,73.1667 62.5,74.5C 61.5084,74.3284 60.8417,74.6618 60.5,75.5C 60.5,76.1667 60.1667,76.5 59.5,76.5C 58.8333,75.1667 58.1667,75.1667 57.5,76.5C 56.5084,76.3284 55.8417,76.6618 55.5,77.5C 55.5,78.1667 55.1667,78.5 54.5,78.5C 53.8333,77.1667 53.1667,77.1667 52.5,78.5C 51.5084,78.3284 50.8417,78.6618 50.5,79.5C 50.5,80.1667 50.1667,80.5 49.5,80.5C 48.8333,79.1667 48.1667,79.1667 47.5,80.5C 46.5084,80.3284 45.8417,80.6618 45.5,81.5C 45.5,82.1667 45.1667,82.5 44.5,82.5C 43.8333,81.1667 43.1667,81.1667 42.5,82.5C 41.209,82.2627 40.209,82.596 39.5,83.5C 38.5084,83.3284 37.8417,83.6618 37.5,84.5C 36.5084,84.3284 35.8417,84.6618 35.5,85.5C 35.5,86.1667 35.1667,86.5 34.5,86.5C 33.8333,85.1667 33.1667,85.1667 32.5,86.5C 31.5084,86.3284 30.8417,86.6618 30.5,87.5C 30.5,88.1667 30.1667,88.5 29.5,88.5C 28.8333,87.1667 28.1667,87.1667 27.5,88.5C 26.5084,88.3284 25.8417,88.6618 25.5,89.5C 25.5,90.1667 25.1667,90.5 24.5,90.5C 23.8333,89.1667 23.1667,89.1667 22.5,90.5C 21.5084,90.3284 20.8417,90.6618 20.5,91.5C 20.5,92.1667 20.1667,92.5 19.5,92.5C 18.8333,91.1667 18.1667,91.1667 17.5,92.5C 16.209,92.2627 15.209,92.596 14.5,93.5C 13.5084,93.3284 12.8417,93.6618 12.5,94.5C 11.5084,94.3284 10.8417,94.6618 10.5,95.5C 10.3333,201.501 10.5,307.501 11,413.5C 91.2408,446.191 171.741,478.191 252.5,509.5C 253.946,510.613 255.613,510.78 257.5,510C 338.017,477.829 418.517,445.662 499,413.5C 499.5,310.167 499.667,206.834 499.5,103.5C 500.833,101.167 500.833,98.8333 499.5,96.5C 499.5,96.1667 499.5,95.8333 499.5,95.5C 498.833,94.1667 498.167,94.1667 497.5,95.5C 496.209,95.7373 495.209,95.404 494.5,94.5C 494.5,94.1667 494.5,93.8333 494.5,93.5C 493.833,92.1667 493.167,92.1667 492.5,93.5C 491.833,93.5 491.5,93.1667 491.5,92.5C 491.167,91.1667 490.833,91.1667 490.5,92.5C 489.833,92.5 489.5,92.1667 489.5,91.5C 489.158,90.6618 488.492,90.3284 487.5,90.5C 486.833,89.1667 486.167,89.1667 485.5,90.5C 484.833,90.5 484.5,90.1667 484.5,89.5C 483.833,88.1667 483.167,88.1667 482.5,89.5C 481.833,89.5 481.5,89.1667 481.5,88.5C 481.167,87.1667 480.833,87.1667 480.5,88.5C 479.833,88.5 479.5,88.1667 479.5,87.5C 478.833,86.1667 478.167,86.1667 477.5,87.5C 476.833,87.5 476.5,87.1667 476.5,86.5C 476.167,85.1667 475.833,85.1667 475.5,86.5C 474.833,86.5 474.5,86.1667 474.5,85.5C 473.833,84.1667 473.167,84.1667 472.5,85.5C 471.833,85.5 471.5,85.1667 471.5,84.5C 471.167,83.1667 470.833,83.1667 470.5,84.5C 469.833,84.5 469.5,84.1667 469.5,83.5C 468.833,82.1667 468.167,82.1667 467.5,83.5C 466.833,83.5 466.5,83.1667 466.5,82.5C 466.167,81.1667 465.833,81.1667 465.5,82.5C 464.833,82.1667 464.167,81.8333 463.5,81.5C 463.167,80.1667 462.833,80.1667 462.5,81.5C 461.833,81.5 461.5,81.1667 461.5,80.5C 461.167,79.1667 460.833,79.1667 460.5,80.5C 459.833,80.1667 459.167,79.8333 458.5,79.5C 458.167,78.1667 457.833,78.1667 457.5,79.5C 456.833,79.5 456.5,79.1667 456.5,78.5C 456.167,77.1667 455.833,77.1667 455.5,78.5C 454.833,78.1667 454.167,77.8333 453.5,77.5C 453.167,76.1667 452.833,76.1667 452.5,77.5C 451.833,77.5 451.5,77.1667 451.5,76.5C 451.158,75.6618 450.492,75.3284 449.5,75.5C 448.833,74.1667 448.167,74.1667 447.5,75.5C 446.833,75.5 446.5,75.1667 446.5,74.5C 446.158,73.6618 445.492,73.3284 444.5,73.5C 443.833,72.1667 443.167,72.1667 442.5,73.5C 441.833,73.5 441.5,73.1667 441.5,72.5C 441.167,71.1667 440.833,71.1667 440.5,72.5C 439.833,72.5 439.5,72.1667 439.5,71.5C 438.833,70.1667 438.167,70.1667 437.5,71.5C 436.833,71.5 436.5,71.1667 436.5,70.5C 436.167,69.1667 435.833,69.1667 435.5,70.5C 434.833,70.1667 434.167,69.8333 433.5,69.5C 433.167,68.1667 432.833,68.1667 432.5,69.5C 431.833,69.5 431.5,69.1667 431.5,68.5C 431.167,67.1667 430.833,67.1667 430.5,68.5C 429.508,68.6716 428.842,68.3382 428.5,67.5C 428.167,66.1667 427.833,66.1667 427.5,67.5C 426.833,67.5 426.5,67.1667 426.5,66.5C 425.833,65.1667 425.167,65.1667 424.5,66.5C 423.833,66.5 423.5,66.1667 423.5,65.5C 423.167,64.1667 422.833,64.1667 422.5,65.5C 421.833,65.5 421.5,65.1667 421.5,64.5C 420.833,63.1667 420.167,63.1667 419.5,64.5C 418.833,64.5 418.5,64.1667 418.5,63.5C 418.167,62.1667 417.833,62.1667 417.5,63.5C 416.833,63.5 416.5,63.1667 416.5,62.5C 416.158,61.6618 415.492,61.3284 414.5,61.5C 413.833,60.1667 413.167,60.1667 412.5,61.5C 411.833,61.5 411.5,61.1667 411.5,60.5C 410.833,59.1667 410.167,59.1667 409.5,60.5C 408.833,60.5 408.5,60.1667 408.5,59.5C 408.167,58.1667 407.833,58.1667 407.5,59.5C 406.833,59.5 406.5,59.1667 406.5,58.5C 406.167,57.1667 405.833,57.1667 405.5,58.5C 404.508,58.6716 403.842,58.3382 403.5,57.5C 403.167,56.1667 402.833,56.1667 402.5,57.5C 401.833,57.5 401.5,57.1667 401.5,56.5C 400.833,55.1667 400.167,55.1667 399.5,56.5C 398.833,56.5 398.5,56.1667 398.5,55.5C 398.167,54.1667 397.833,54.1667 397.5,55.5C 396.833,55.5 396.5,55.1667 396.5,54.5C 395.833,53.1667 395.167,53.1667 394.5,54.5C 393.833,54.5 393.5,54.1667 393.5,53.5C 393.167,52.1667 392.833,52.1667 392.5,53.5C 391.833,53.5 391.5,53.1667 391.5,52.5C 390.833,51.1667 390.167,51.1667 389.5,52.5C 388.833,52.5 388.5,52.1667 388.5,51.5C 388.167,50.1667 387.833,50.1667 387.5,51.5C 386.833,51.1667 386.167,50.8333 385.5,50.5C 385.167,49.1667 384.833,49.1667 384.5,50.5C 383.833,50.5 383.5,50.1667 383.5,49.5C 383.167,48.1667 382.833,48.1667 382.5,49.5C 381.833,49.5 381.5,49.1667 381.5,48.5C 380.833,47.1667 380.167,47.1667 379.5,48.5C 378.833,48.5 378.5,48.1667 378.5,47.5C 378.167,46.1667 377.833,46.1667 377.5,47.5C 376.833,47.5 376.5,47.1667 376.5,46.5C 375.833,45.1667 375.167,45.1667 374.5,46.5C 373.833,46.5 373.5,46.1667 373.5,45.5C 373.167,44.1667 372.833,44.1667 372.5,45.5C 371.833,45.5 371.5,45.1667 371.5,44.5C 370.833,43.1667 370.167,43.1667 369.5,44.5C 368.833,44.5 368.5,44.1667 368.5,43.5C 368.167,42.1667 367.833,42.1667 367.5,43.5C 366.833,43.5 366.5,43.1667 366.5,42.5C 365.833,41.1667 365.167,41.1667 364.5,42.5C 363.833,42.5 363.5,42.1667 363.5,41.5C 363.167,40.1667 362.833,40.1667 362.5,41.5C 361.833,41.1667 361.167,40.8333 360.5,40.5C 360.167,39.1667 359.833,39.1667 359.5,40.5C 358.833,40.5 358.5,40.1667 358.5,39.5C 358.167,38.1667 357.833,38.1667 357.5,39.5C 356.833,39.1667 356.167,38.8333 355.5,38.5C 355.167,37.1667 354.833,37.1667 354.5,38.5C 353.833,38.5 353.5,38.1667 353.5,37.5C 353.158,36.6618 352.492,36.3284 351.5,36.5C 351.167,36.5 350.833,36.5 350.5,36.5C 350.167,35.1667 349.833,35.1667 349.5,36.5C 348.833,36.5 348.5,36.1667 348.5,35.5C 348.158,34.6618 347.492,34.3284 346.5,34.5C 345.833,33.1667 345.167,33.1667 344.5,34.5C 343.833,34.5 343.5,34.1667 343.5,33.5C 343.158,32.6618 342.492,32.3284 341.5,32.5C 340.833,31.1667 340.167,31.1667 339.5,32.5C 338.833,32.5 338.5,32.1667 338.5,31.5C 338.167,30.1667 337.833,30.1667 337.5,31.5C 336.508,31.6716 335.842,31.3382 335.5,30.5C 335.167,29.1667 334.833,29.1667 334.5,30.5C 333.833,30.5 333.5,30.1667 333.5,29.5C 333.167,28.1667 332.833,28.1667 332.5,29.5C 331.508,29.6716 330.842,29.3382 330.5,28.5C 330.167,27.1667 329.833,27.1667 329.5,28.5C 328.833,28.5 328.5,28.1667 328.5,27.5C 328.167,26.1667 327.833,26.1667 327.5,27.5C 326.508,27.6716 325.842,27.3382 325.5,26.5C 325.167,25.1667 324.833,25.1667 324.5,26.5C 323.833,26.5 323.5,26.1667 323.5,25.5C 322.833,24.1667 322.167,24.1667 321.5,25.5C 320.833,25.5 320.5,25.1667 320.5,24.5C 320.167,23.1667 319.833,23.1667 319.5,24.5C 318.833,24.5 318.5,24.1667 318.5,23.5C 317.833,22.1667 317.167,22.1667 316.5,23.5C 315.833,23.5 315.5,23.1667 315.5,22.5C 315.167,21.1667 314.833,21.1667 314.5,22.5C 313.833,22.5 313.5,22.1667 313.5,21.5C 313.158,20.6618 312.492,20.3284 311.5,20.5C 310.833,19.1667 310.167,19.1667 309.5,20.5C 308.833,20.5 308.5,20.1667 308.5,19.5C 307.833,18.1667 307.167,18.1667 306.5,19.5C 305.833,19.5 305.5,19.1667 305.5,18.5C 305.167,17.1667 304.833,17.1667 304.5,18.5C 303.833,18.5 303.5,18.1667 303.5,17.5C 302.833,16.1667 302.167,16.1667 301.5,17.5C 300.833,17.5 300.5,17.1667 300.5,16.5C 300.167,15.1667 299.833,15.1667 299.5,16.5C 298.833,16.5 298.5,16.1667 298.5,15.5C 297.833,14.1667 297.167,14.1667 296.5,15.5C 295.833,15.5 295.5,15.1667 295.5,14.5C 295.167,13.1667 294.833,13.1667 294.5,14.5C 293.833,14.5 293.5,14.1667 293.5,13.5C 292.833,12.1667 292.167,12.1667 291.5,13.5C 290.833,13.5 290.5,13.1667 290.5,12.5C 290.167,11.1667 289.833,11.1667 289.5,12.5C 288.833,12.1667 288.167,11.8333 287.5,11.5C 287.167,10.1667 286.833,10.1667 286.5,11.5C 285.833,11.5 285.5,11.1667 285.5,10.5C 285.167,9.16667 284.833,9.16667 284.5,10.5C 283.833,10.1667 283.167,9.83333 282.5,9.5C 282.167,8.16667 281.833,8.16667 281.5,9.5C 280.833,9.5 280.5,9.16667 280.5,8.5C 280.167,7.16667 279.833,7.16667 279.5,8.5C 278.833,8.5 278.5,8.16667 278.5,7.5C 277.833,6.16667 277.167,6.16667 276.5,7.5C 275.833,7.5 275.5,7.16667 275.5,6.5C 275.158,5.66175 274.492,5.32842 273.5,5.5C 272.833,4.16667 272.167,4.16667 271.5,5.5C 270.833,5.5 270.5,5.16667 270.5,4.5C 270.167,3.16667 269.833,3.16667 269.5,4.5C 268.833,4.5 268.5,4.16667 268.5,3.5C 267.833,2.16667 267.167,2.16667 266.5,3.5C 265.833,3.5 265.5,3.16667 265.5,2.5C 265.167,1.16667 264.833,1.16667 264.5,2.5C 263.833,2.5 263.5,2.16667 263.5,1.5C 262.833,0.166667 262.167,0.166667 261.5,1.5C 260.833,1.5 260.5,1.16667 260.5,0.5C 260.5,0.166667 260.5,-0.166667 260.5,-0.5C 267.833,-0.5 275.167,-0.5 282.5,-0.5C 355.371,28.9577 428.371,58.1243 501.5,87C 505.34,88.418 508.674,90.5847 511.5,93.5C 511.5,204.833 511.5,316.167 511.5,427.5C 508.319,430.338 504.652,432.505 500.5,434C 435.992,459.554 371.659,485.388 307.5,511.5C 274.5,511.5 241.5,511.5 208.5,511.5C 144.031,485.177 79.3643,459.344 14.5,434C 4.83609,429.745 0.336089,422.245 1,411.5C 0.333333,310.5 0.333333,209.5 1,108.5C 0.603484,98.1028 5.10348,90.9361 14.5,87C 34.7054,79.5657 54.7054,71.5657 74.5,63C 84.9464,60.4069 95.2798,57.4069 105.5,54C 125.41,46.0242 145.41,38.0242 165.5,30C 171.146,26.6988 176.813,23.3655 182.5,20C 199.651,13.2348 216.651,6.40144 233.5,-0.5 Z M 177.5,29.5 C 177.5,30.5 177.5,31.5 177.5,32.5C 176.5,32.5 175.5,32.5 174.5,32.5C 175.5,31.5 176.5,30.5 177.5,29.5 Z M 177.5,32.5 C 257.51,64.3383 337.344,96.6716 417,129.5C 417.167,179.17 417.667,228.837 418.5,278.5C 425.312,275.286 432.312,272.786 439.5,271C 417.675,315.485 396.508,360.318 376,405.5C 354.641,377.642 333.475,349.642 312.5,321.5C 314.512,319.545 316.846,318.045 319.5,317C 323.459,315.506 327.459,314.006 331.5,312.5C 332.833,262.5 332.833,212.5 331.5,162.5C 305.863,172.544 280.363,182.878 255,193.5C 255.165,299.171 254.332,404.505 252.5,509.5C 253.664,404.236 253.831,298.903 253,193.5C 173.381,160.946 93.548,128.779 13.5,97C 12.944,96.6174 12.6107,96.1174 12.5,95.5C 93.4685,126.731 174.302,158.398 255,190.5C 280.016,180.716 303.683,171.049 326,161.5C 324.488,160.743 323.154,159.743 322,158.5C 245.222,128.731 168.389,98.0639 91.5,66.5C 94.1573,66.0652 96.4907,65.0652 98.5,63.5C 99.791,63.7373 100.791,63.404 101.5,62.5C 102.492,62.6716 103.158,62.3382 103.5,61.5C 105.553,61.5979 107.22,60.9313 108.5,59.5C 109.791,59.7373 110.791,59.404 111.5,58.5C 113.553,58.5979 115.22,57.9313 116.5,56.5C 117.492,56.6716 118.158,56.3382 118.5,55.5C 119.791,55.7373 120.791,55.404 121.5,54.5C 123.553,54.5979 125.22,53.9313 126.5,52.5C 128.553,52.5979 130.22,51.9313 131.5,50.5C 135.137,49.7365 138.47,48.4032 141.5,46.5C 142.791,46.7373 143.791,46.404 144.5,45.5C 145.492,45.6716 146.158,45.3382 146.5,44.5C 147.791,44.7373 148.791,44.404 149.5,43.5C 151.553,43.5979 153.22,42.9313 154.5,41.5C 156.553,41.5979 158.22,40.9313 159.5,39.5C 161.553,39.5979 163.22,38.9313 164.5,37.5C 166.553,37.5979 168.22,36.9313 169.5,35.5C 171.553,35.5979 173.22,34.9313 174.5,33.5C 175.791,33.7373 176.791,33.404 177.5,32.5 Z M 494.5,94.5 C 495.209,95.404 496.209,95.7373 497.5,95.5C 473.055,105.934 448.388,116.1 423.5,126C 421.597,126.774 419.93,126.44 418.5,125C 444.175,115.501 469.509,105.335 494.5,94.5 Z M 48.5,181.5 C 69.5943,189.366 90.5943,197.533 111.5,206C 118.966,212.096 123.466,219.929 125,229.5C 125.667,280.167 125.667,330.833 125,381.5C 123.579,390.97 118.413,394.804 109.5,393C 89.3013,384.557 68.968,376.724 48.5,369.5C 48.5,306.833 48.5,244.167 48.5,181.5 Z M 146.5,220.5 C 156.556,224.298 166.556,228.298 176.5,232.5C 177.333,285.164 177.833,337.83 178,390.5C 186.11,393.927 194.276,397.26 202.5,400.5C 203.833,410.5 203.833,420.5 202.5,430.5C 183.928,422.962 165.428,415.296 147,407.5C 146.5,345.168 146.333,282.834 146.5,220.5 Z"/></g>
<g><path style="opacity:1" fill="#96969c" d="M 250.5,-0.5 C 253.5,-0.5 256.5,-0.5 259.5,-0.5C 259.5,0.166667 259.833,0.5 260.5,0.5C 260.5,1.16667 260.833,1.5 261.5,1.5C 262.167,1.5 262.833,1.5 263.5,1.5C 263.5,2.16667 263.833,2.5 264.5,2.5C 264.833,2.5 265.167,2.5 265.5,2.5C 265.5,3.16667 265.833,3.5 266.5,3.5C 267.167,3.5 267.833,3.5 268.5,3.5C 268.5,4.16667 268.833,4.5 269.5,4.5C 269.833,4.5 270.167,4.5 270.5,4.5C 270.5,5.16667 270.833,5.5 271.5,5.5C 272.167,5.5 272.833,5.5 273.5,5.5C 273.842,6.33825 274.508,6.67158 275.5,6.5C 275.5,7.16667 275.833,7.5 276.5,7.5C 277.167,7.5 277.833,7.5 278.5,7.5C 278.5,8.16667 278.833,8.5 279.5,8.5C 279.833,8.5 280.167,8.5 280.5,8.5C 280.5,9.16667 280.833,9.5 281.5,9.5C 281.833,9.5 282.167,9.5 282.5,9.5C 283.167,9.83333 283.833,10.1667 284.5,10.5C 284.833,10.5 285.167,10.5 285.5,10.5C 285.5,11.1667 285.833,11.5 286.5,11.5C 286.833,11.5 287.167,11.5 287.5,11.5C 288.167,11.8333 288.833,12.1667 289.5,12.5C 289.833,12.5 290.167,12.5 290.5,12.5C 290.5,13.1667 290.833,13.5 291.5,13.5C 292.167,13.5 292.833,13.5 293.5,13.5C 293.5,14.1667 293.833,14.5 294.5,14.5C 294.833,14.5 295.167,14.5 295.5,14.5C 295.5,15.1667 295.833,15.5 296.5,15.5C 297.167,15.5 297.833,15.5 298.5,15.5C 298.5,16.1667 298.833,16.5 299.5,16.5C 299.833,16.5 300.167,16.5 300.5,16.5C 300.5,17.1667 300.833,17.5 301.5,17.5C 302.167,17.5 302.833,17.5 303.5,17.5C 303.5,18.1667 303.833,18.5 304.5,18.5C 304.833,18.5 305.167,18.5 305.5,18.5C 305.5,19.1667 305.833,19.5 306.5,19.5C 307.167,19.5 307.833,19.5 308.5,19.5C 308.5,20.1667 308.833,20.5 309.5,20.5C 310.167,20.5 310.833,20.5 311.5,20.5C 311.842,21.3382 312.508,21.6716 313.5,21.5C 313.5,22.1667 313.833,22.5 314.5,22.5C 314.833,22.5 315.167,22.5 315.5,22.5C 315.5,23.1667 315.833,23.5 316.5,23.5C 317.167,23.5 317.833,23.5 318.5,23.5C 318.5,24.1667 318.833,24.5 319.5,24.5C 319.833,24.5 320.167,24.5 320.5,24.5C 320.5,25.1667 320.833,25.5 321.5,25.5C 322.167,25.5 322.833,25.5 323.5,25.5C 323.5,26.1667 323.833,26.5 324.5,26.5C 324.833,26.5 325.167,26.5 325.5,26.5C 325.842,27.3382 326.508,27.6716 327.5,27.5C 327.833,27.5 328.167,27.5 328.5,27.5C 328.5,28.1667 328.833,28.5 329.5,28.5C 329.833,28.5 330.167,28.5 330.5,28.5C 330.842,29.3382 331.508,29.6716 332.5,29.5C 332.833,29.5 333.167,29.5 333.5,29.5C 333.5,30.1667 333.833,30.5 334.5,30.5C 334.833,30.5 335.167,30.5 335.5,30.5C 335.842,31.3382 336.508,31.6716 337.5,31.5C 337.833,31.5 338.167,31.5 338.5,31.5C 338.5,32.1667 338.833,32.5 339.5,32.5C 340.167,32.5 340.833,32.5 341.5,32.5C 341.842,33.3382 342.508,33.6716 343.5,33.5C 343.5,34.1667 343.833,34.5 344.5,34.5C 345.167,34.5 345.833,34.5 346.5,34.5C 346.842,35.3382 347.508,35.6716 348.5,35.5C 348.5,36.1667 348.833,36.5 349.5,36.5C 349.833,36.5 350.167,36.5 350.5,36.5C 350.833,36.5 351.167,36.5 351.5,36.5C 351.842,37.3382 352.508,37.6716 353.5,37.5C 353.5,38.1667 353.833,38.5 354.5,38.5C 354.833,38.5 355.167,38.5 355.5,38.5C 356.167,38.8333 356.833,39.1667 357.5,39.5C 357.833,39.5 358.167,39.5 358.5,39.5C 358.5,40.1667 358.833,40.5 359.5,40.5C 359.833,40.5 360.167,40.5 360.5,40.5C 361.167,40.8333 361.833,41.1667 362.5,41.5C 362.833,41.5 363.167,41.5 363.5,41.5C 363.5,42.1667 363.833,42.5 364.5,42.5C 365.167,42.5 365.833,42.5 366.5,42.5C 366.5,43.1667 366.833,43.5 367.5,43.5C 367.833,43.5 368.167,43.5 368.5,43.5C 368.5,44.1667 368.833,44.5 369.5,44.5C 370.167,44.5 370.833,44.5 371.5,44.5C 371.5,45.1667 371.833,45.5 372.5,45.5C 372.833,45.5 373.167,45.5 373.5,45.5C 373.5,46.1667 373.833,46.5 374.5,46.5C 375.167,46.5 375.833,46.5 376.5,46.5C 376.5,47.1667 376.833,47.5 377.5,47.5C 377.833,47.5 378.167,47.5 378.5,47.5C 378.5,48.1667 378.833,48.5 379.5,48.5C 380.167,48.5 380.833,48.5 381.5,48.5C 381.5,49.1667 381.833,49.5 382.5,49.5C 382.833,49.5 383.167,49.5 383.5,49.5C 383.5,50.1667 383.833,50.5 384.5,50.5C 384.833,50.5 385.167,50.5 385.5,50.5C 386.167,50.8333 386.833,51.1667 387.5,51.5C 387.833,51.5 388.167,51.5 388.5,51.5C 388.5,52.1667 388.833,52.5 389.5,52.5C 390.167,52.5 390.833,52.5 391.5,52.5C 391.5,53.1667 391.833,53.5 392.5,53.5C 392.833,53.5 393.167,53.5 393.5,53.5C 393.5,54.1667 393.833,54.5 394.5,54.5C 395.167,54.5 395.833,54.5 396.5,54.5C 396.5,55.1667 396.833,55.5 397.5,55.5C 397.833,55.5 398.167,55.5 398.5,55.5C 398.5,56.1667 398.833,56.5 399.5,56.5C 400.167,56.5 400.833,56.5 401.5,56.5C 401.5,57.1667 401.833,57.5 402.5,57.5C 402.833,57.5 403.167,57.5 403.5,57.5C 403.842,58.3382 404.508,58.6716 405.5,58.5C 405.833,58.5 406.167,58.5 406.5,58.5C 406.5,59.1667 406.833,59.5 407.5,59.5C 407.833,59.5 408.167,59.5 408.5,59.5C 408.5,60.1667 408.833,60.5 409.5,60.5C 410.167,60.5 410.833,60.5 411.5,60.5C 411.5,61.1667 411.833,61.5 412.5,61.5C 413.167,61.5 413.833,61.5 414.5,61.5C 414.842,62.3382 415.508,62.6716 416.5,62.5C 416.5,63.1667 416.833,63.5 417.5,63.5C 417.833,63.5 418.167,63.5 418.5,63.5C 418.5,64.1667 418.833,64.5 419.5,64.5C 420.167,64.5 420.833,64.5 421.5,64.5C 421.5,65.1667 421.833,65.5 422.5,65.5C 422.833,65.5 423.167,65.5 423.5,65.5C 423.5,66.1667 423.833,66.5 424.5,66.5C 425.167,66.5 425.833,66.5 426.5,66.5C 426.5,67.1667 426.833,67.5 427.5,67.5C 427.833,67.5 428.167,67.5 428.5,67.5C 428.842,68.3382 429.508,68.6716 430.5,68.5C 430.833,68.5 431.167,68.5 431.5,68.5C 431.5,69.1667 431.833,69.5 432.5,69.5C 432.833,69.5 433.167,69.5 433.5,69.5C 434.167,69.8333 434.833,70.1667 435.5,70.5C 435.833,70.5 436.167,70.5 436.5,70.5C 436.5,71.1667 436.833,71.5 437.5,71.5C 438.167,71.5 438.833,71.5 439.5,71.5C 439.5,72.1667 439.833,72.5 440.5,72.5C 440.833,72.5 441.167,72.5 441.5,72.5C 441.5,73.1667 441.833,73.5 442.5,73.5C 443.167,73.5 443.833,73.5 444.5,73.5C 444.842,74.3382 445.508,74.6716 446.5,74.5C 446.5,75.1667 446.833,75.5 447.5,75.5C 448.167,75.5 448.833,75.5 449.5,75.5C 449.842,76.3382 450.508,76.6716 451.5,76.5C 451.5,77.1667 451.833,77.5 452.5,77.5C 452.833,77.5 453.167,77.5 453.5,77.5C 454.167,77.8333 454.833,78.1667 455.5,78.5C 455.833,78.5 456.167,78.5 456.5,78.5C 456.5,79.1667 456.833,79.5 457.5,79.5C 457.833,79.5 458.167,79.5 458.5,79.5C 459.167,79.8333 459.833,80.1667 460.5,80.5C 460.833,80.5 461.167,80.5 461.5,80.5C 461.5,81.1667 461.833,81.5 462.5,81.5C 462.833,81.5 463.167,81.5 463.5,81.5C 464.167,81.8333 464.833,82.1667 465.5,82.5C 465.833,82.5 466.167,82.5 466.5,82.5C 466.5,83.1667 466.833,83.5 467.5,83.5C 468.167,83.5 468.833,83.5 469.5,83.5C 469.5,84.1667 469.833,84.5 470.5,84.5C 470.833,84.5 471.167,84.5 471.5,84.5C 471.5,85.1667 471.833,85.5 472.5,85.5C 473.167,85.5 473.833,85.5 474.5,85.5C 474.5,86.1667 474.833,86.5 475.5,86.5C 475.833,86.5 476.167,86.5 476.5,86.5C 476.5,87.1667 476.833,87.5 477.5,87.5C 478.167,87.5 478.833,87.5 479.5,87.5C 479.5,88.1667 479.833,88.5 480.5,88.5C 480.833,88.5 481.167,88.5 481.5,88.5C 481.5,89.1667 481.833,89.5 482.5,89.5C 483.167,89.5 483.833,89.5 484.5,89.5C 484.5,90.1667 484.833,90.5 485.5,90.5C 486.167,90.5 486.833,90.5 487.5,90.5C 487.842,91.3382 488.508,91.6716 489.5,91.5C 489.5,92.1667 489.833,92.5 490.5,92.5C 490.833,92.5 491.167,92.5 491.5,92.5C 491.5,93.1667 491.833,93.5 492.5,93.5C 493.167,93.5 493.833,93.5 494.5,93.5C 494.5,93.8333 494.5,94.1667 494.5,94.5C 469.509,105.335 444.175,115.501 418.5,125C 419.93,126.44 421.597,126.774 423.5,126C 448.388,116.1 473.055,105.934 497.5,95.5C 498.167,95.5 498.833,95.5 499.5,95.5C 499.5,95.8333 499.5,96.1667 499.5,96.5C 499.5,98.8333 499.5,101.167 499.5,103.5C 499.667,206.834 499.5,310.167 499,413.5C 418.517,445.662 338.017,477.829 257.5,510C 255.613,510.78 253.946,510.613 252.5,509.5C 254.332,404.505 255.165,299.171 255,193.5C 280.363,182.878 305.863,172.544 331.5,162.5C 332.833,212.5 332.833,262.5 331.5,312.5C 327.459,314.006 323.459,315.506 319.5,317C 316.846,318.045 314.512,319.545 312.5,321.5C 333.475,349.642 354.641,377.642 376,405.5C 396.508,360.318 417.675,315.485 439.5,271C 432.312,272.786 425.312,275.286 418.5,278.5C 417.667,228.837 417.167,179.17 417,129.5C 337.344,96.6716 257.51,64.3383 177.5,32.5C 177.5,31.5 177.5,30.5 177.5,29.5C 178.167,29.5 178.5,29.1667 178.5,28.5C 179.167,28.5 179.5,28.1667 179.5,27.5C 180.791,27.7373 181.791,27.404 182.5,26.5C 183.492,26.6716 184.158,26.3382 184.5,25.5C 185.791,25.7373 186.791,25.404 187.5,24.5C 188.167,24.5 188.833,24.5 189.5,24.5C 190.167,24.5 190.5,24.1667 190.5,23.5C 191.492,23.6716 192.158,23.3382 192.5,22.5C 193.167,22.5 193.833,22.5 194.5,22.5C 195.167,22.5 195.5,22.1667 195.5,21.5C 196.492,21.6716 197.158,21.3382 197.5,20.5C 198.791,20.7373 199.791,20.404 200.5,19.5C 201.492,19.6716 202.158,19.3382 202.5,18.5C 203.791,18.7373 204.791,18.404 205.5,17.5C 206.167,17.5 206.833,17.5 207.5,17.5C 208.167,17.5 208.5,17.1667 208.5,16.5C 209.492,16.6716 210.158,16.3382 210.5,15.5C 211.167,15.5 211.833,15.5 212.5,15.5C 213.167,15.5 213.5,15.1667 213.5,14.5C 214.492,14.6716 215.158,14.3382 215.5,13.5C 216.167,13.5 216.833,13.5 217.5,13.5C 218.167,13.5 218.5,13.1667 218.5,12.5C 219.492,12.6716 220.158,12.3382 220.5,11.5C 221.167,11.5 221.833,11.5 222.5,11.5C 223.167,11.5 223.5,11.1667 223.5,10.5C 224.167,10.5 224.833,10.5 225.5,10.5C 226.167,10.5 226.5,10.1667 226.5,9.5C 226.833,9.5 227.167,9.5 227.5,9.5C 228.167,9.5 228.5,9.16667 228.5,8.5C 229.167,8.5 229.833,8.5 230.5,8.5C 231.167,8.5 231.5,8.16667 231.5,7.5C 231.833,7.5 232.167,7.5 232.5,7.5C 233.167,7.5 233.5,7.16667 233.5,6.5C 234.167,6.5 234.833,6.5 235.5,6.5C 236.167,6.5 236.5,6.16667 236.5,5.5C 236.833,5.5 237.167,5.5 237.5,5.5C 238.167,5.5 238.5,5.16667 238.5,4.5C 239.492,4.67158 240.158,4.33825 240.5,3.5C 241.791,3.73731 242.791,3.40397 243.5,2.5C 244.492,2.67158 245.158,2.33825 245.5,1.5C 246.791,1.73731 247.791,1.40397 248.5,0.5C 249.492,0.67158 250.158,0.338246 250.5,-0.5 Z"/></g>
<g><path style="opacity:1" fill="#7d8081" d="M 113.5,56.5 C 114.5,56.5 115.5,56.5 116.5,56.5C 115.22,57.9313 113.553,58.5979 111.5,58.5C 111.5,58.1667 111.5,57.8333 111.5,57.5C 112.492,57.6716 113.158,57.3382 113.5,56.5 Z"/></g>
<g><path style="opacity:1" fill="#96969c" d="M 87.5,64.5 C 87.8333,64.5 88.1667,64.5 88.5,64.5C 89.1667,64.5 89.5,64.8333 89.5,65.5C 89.5,66.1667 89.8333,66.5 90.5,66.5C 90.8333,66.5 91.1667,66.5 91.5,66.5C 168.389,98.0639 245.222,128.731 322,158.5C 323.154,159.743 324.488,160.743 326,161.5C 303.683,171.049 280.016,180.716 255,190.5C 174.302,158.398 93.4685,126.731 12.5,95.5C 12.5,95.1667 12.5,94.8333 12.5,94.5C 13.4916,94.6716 14.1583,94.3382 14.5,93.5C 15.791,93.7373 16.791,93.404 17.5,92.5C 18.1667,92.5 18.8333,92.5 19.5,92.5C 20.1667,92.5 20.5,92.1667 20.5,91.5C 21.4916,91.6716 22.1583,91.3382 22.5,90.5C 23.1667,90.5 23.8333,90.5 24.5,90.5C 25.1667,90.5 25.5,90.1667 25.5,89.5C 26.4916,89.6716 27.1583,89.3382 27.5,88.5C 28.1667,88.5 28.8333,88.5 29.5,88.5C 30.1667,88.5 30.5,88.1667 30.5,87.5C 31.4916,87.6716 32.1583,87.3382 32.5,86.5C 33.1667,86.5 33.8333,86.5 34.5,86.5C 35.1667,86.5 35.5,86.1667 35.5,85.5C 36.4916,85.6716 37.1583,85.3382 37.5,84.5C 38.4916,84.6716 39.1583,84.3382 39.5,83.5C 40.791,83.7373 41.791,83.404 42.5,82.5C 43.1667,82.5 43.8333,82.5 44.5,82.5C 45.1667,82.5 45.5,82.1667 45.5,81.5C 46.4916,81.6716 47.1583,81.3382 47.5,80.5C 48.1667,80.5 48.8333,80.5 49.5,80.5C 50.1667,80.5 50.5,80.1667 50.5,79.5C 51.4916,79.6716 52.1583,79.3382 52.5,78.5C 53.1667,78.5 53.8333,78.5 54.5,78.5C 55.1667,78.5 55.5,78.1667 55.5,77.5C 56.4916,77.6716 57.1583,77.3382 57.5,76.5C 58.1667,76.5 58.8333,76.5 59.5,76.5C 60.1667,76.5 60.5,76.1667 60.5,75.5C 61.4916,75.6716 62.1583,75.3382 62.5,74.5C 63.1667,74.5 63.8333,74.5 64.5,74.5C 65.1667,74.5 65.5,74.1667 65.5,73.5C 66.1667,73.5 66.8333,73.5 67.5,73.5C 68.1667,73.5 68.5,73.1667 68.5,72.5C 68.8333,72.5 69.1667,72.5 69.5,72.5C 70.1667,72.5 70.5,72.1667 70.5,71.5C 71.4916,71.6716 72.1583,71.3382 72.5,70.5C 73.1667,70.5 73.8333,70.5 74.5,70.5C 75.1667,70.5 75.5,70.1667 75.5,69.5C 76.4916,69.6716 77.1583,69.3382 77.5,68.5C 78.1667,68.5 78.8333,68.5 79.5,68.5C 80.1667,68.5 80.5,68.1667 80.5,67.5C 81.4916,67.6716 82.1583,67.3382 82.5,66.5C 83.791,66.7373 84.791,66.404 85.5,65.5C 86.4916,65.6716 87.1583,65.3382 87.5,64.5 Z"/></g>
<g><path style="opacity:1" fill="#96979c" d="M 10.5,95.5 C 11.1667,95.5 11.8333,95.5 12.5,95.5C 12.6107,96.1174 12.944,96.6174 13.5,97C 93.548,128.779 173.381,160.946 253,193.5C 253.831,298.903 253.664,404.236 252.5,509.5C 171.741,478.191 91.2408,446.191 11,413.5C 10.5,307.501 10.3333,201.501 10.5,95.5 Z M 48.5,181.5 C 48.5,244.167 48.5,306.833 48.5,369.5C 68.968,376.724 89.3013,384.557 109.5,393C 118.413,394.804 123.579,390.97 125,381.5C 125.667,330.833 125.667,280.167 125,229.5C 123.466,219.929 118.966,212.096 111.5,206C 90.5943,197.533 69.5943,189.366 48.5,181.5 Z M 146.5,220.5 C 146.333,282.834 146.5,345.168 147,407.5C 165.428,415.296 183.928,422.962 202.5,430.5C 203.833,420.5 203.833,410.5 202.5,400.5C 194.276,397.26 186.11,393.927 178,390.5C 177.833,337.83 177.333,285.164 176.5,232.5C 166.556,228.298 156.556,224.298 146.5,220.5 Z"/></g>
<g><path style="opacity:1" fill="#96979c" d="M 82.5,225.5 C 89.0404,226.205 92.8738,229.871 94,236.5C 94.6667,274.5 94.6667,312.5 94,350.5C 93.2037,352.967 91.537,354.3 89,354.5C 85.9912,353.997 83.1578,352.997 80.5,351.5C 79.3334,310.171 79.1667,268.837 80,227.5C 80.9947,226.934 81.828,226.267 82.5,225.5 Z"/></g>
</svg>
